<svg width="282" height="281" viewBox="0 0 282 281" fill="none" xmlns="http://www.w3.org/2000/svg">
<path d="M228.425 35.5283H202.125V26.7615C202.125 24.4364 201.201 22.2065 199.557 20.5624C197.913 18.9183 195.683 17.9946 193.358 17.9946C191.033 17.9946 188.803 18.9183 187.159 20.5624C185.515 22.2065 184.591 24.4364 184.591 26.7615V35.5283H96.9226V26.7615C96.9226 24.4364 95.9989 22.2065 94.3548 20.5624C92.7107 18.9183 90.4809 17.9946 88.1557 17.9946C85.8306 17.9946 83.6008 18.9183 81.9567 20.5624C80.3126 22.2065 79.3889 24.4364 79.3889 26.7615V35.5283H53.0884C48.4382 35.5283 43.9784 37.3756 40.6902 40.6638C37.402 43.952 35.5547 48.4118 35.5547 53.062V228.399C35.5547 233.049 37.402 237.509 40.6902 240.797C43.9784 244.085 48.4382 245.933 53.0884 245.933H228.425C233.075 245.933 237.535 244.085 240.823 240.797C244.112 237.509 245.959 233.049 245.959 228.399V53.062C245.959 48.4118 244.112 43.952 240.823 40.6638C237.535 37.3756 233.075 35.5283 228.425 35.5283ZM79.3889 53.062V61.8288C79.3889 64.154 80.3126 66.3838 81.9567 68.0279C83.6008 69.672 85.8306 70.5957 88.1557 70.5957C90.4809 70.5957 92.7107 69.672 94.3548 68.0279C95.9989 66.3838 96.9226 64.154 96.9226 61.8288V53.062H184.591V61.8288C184.591 64.154 185.515 66.3838 187.159 68.0279C188.803 69.672 191.033 70.5957 193.358 70.5957C195.683 70.5957 197.913 69.672 199.557 68.0279C201.201 66.3838 202.125 64.154 202.125 61.8288V53.062H228.425V88.1294H53.0884V53.062H79.3889ZM228.425 228.399H53.0884V105.663H228.425V228.399ZM123.223 131.964V202.098C123.223 204.423 122.299 206.653 120.655 208.297C119.011 209.942 116.781 210.865 114.456 210.865C112.131 210.865 109.901 209.942 108.257 208.297C106.613 206.653 105.689 204.423 105.689 202.098V146.144L100.846 148.577C98.7648 149.617 96.3557 149.788 94.1485 149.053C91.9413 148.317 90.1167 146.735 89.0763 144.654C88.0358 142.573 87.8646 140.164 88.6003 137.956C89.336 135.749 90.9184 133.925 92.9994 132.884L110.533 124.117C111.87 123.448 113.356 123.132 114.85 123.199C116.343 123.266 117.795 123.714 119.067 124.501C120.338 125.287 121.388 126.385 122.115 127.692C122.843 128.998 123.224 130.468 123.223 131.964ZM188.054 165.332L167.057 193.331H184.591C186.916 193.331 189.146 194.255 190.79 195.899C192.434 197.543 193.358 199.773 193.358 202.098C193.358 204.423 192.434 206.653 190.79 208.297C189.146 209.942 186.916 210.865 184.591 210.865H149.524C147.896 210.865 146.3 210.412 144.915 209.556C143.53 208.7 142.41 207.475 141.682 206.019C140.954 204.563 140.646 202.933 140.792 201.311C140.938 199.689 141.533 198.141 142.51 196.838L174.049 154.79C174.766 153.835 175.281 152.744 175.561 151.583C175.842 150.422 175.882 149.215 175.679 148.038C175.477 146.861 175.036 145.738 174.383 144.737C173.731 143.737 172.881 142.88 171.886 142.22C170.89 141.559 169.771 141.109 168.595 140.897C167.42 140.685 166.213 140.716 165.05 140.987C163.887 141.258 162.791 141.764 161.83 142.473C160.87 143.183 160.064 144.082 159.463 145.114C158.904 146.143 158.145 147.049 157.231 147.78C156.316 148.511 155.264 149.051 154.137 149.368C153.011 149.686 151.832 149.775 150.67 149.629C149.508 149.484 148.388 149.107 147.374 148.522C146.36 147.936 145.474 147.154 144.768 146.22C144.061 145.286 143.549 144.221 143.261 143.086C142.973 141.951 142.916 140.77 143.092 139.613C143.267 138.455 143.673 137.345 144.285 136.347C147.181 131.336 151.65 127.419 156.998 125.205C162.345 122.992 168.274 122.604 173.865 124.102C179.456 125.6 184.396 128.901 187.92 133.492C191.445 138.083 193.356 143.709 193.358 149.497C193.376 155.215 191.513 160.78 188.054 165.332Z" fill="url(#paint0_linear_211_331)"/>
<defs>
<linearGradient id="paint0_linear_211_331" x1="140.757" y1="17.9946" x2="140.757" y2="245.933" gradientUnits="userSpaceOnUse">
<stop stop-color="#00FFF2"/>
<stop offset="1" stop-color="#22AAA1"/>
</linearGradient>
</defs>
</svg>
