<svg width="28" height="28" viewBox="0 0 28 28" fill="none" xmlns="http://www.w3.org/2000/svg">
<path d="M8.25 12.625H9V11.875V8.5C9 5.81259 11.1876 3.625 13.875 3.625C16.5624 3.625 18.75 5.81259 18.75 8.5V11.875V12.625H19.5H20.625C21.0228 12.625 21.4044 12.783 21.6857 13.0643C21.967 13.3456 22.125 13.7272 22.125 14.125V23.125C22.125 23.5228 21.967 23.9044 21.6857 24.1857C21.4044 24.467 21.0228 24.625 20.625 24.625H7.125C6.72718 24.625 6.34565 24.467 6.06434 24.1857C5.78304 23.9044 5.625 23.5228 5.625 23.125V14.125C5.625 13.7272 5.78304 13.3456 6.06434 13.0643C6.34564 12.783 6.72718 12.625 7.125 12.625H8.25ZM17.25 12.625H18V11.875V8.5C18 6.22504 16.15 4.375 13.875 4.375C11.6 4.375 9.75 6.22504 9.75 8.5V11.875V12.625H10.5H17.25ZM15.75 23.875V23.125V20.9578C16.0392 20.7271 16.2842 20.4438 16.4712 20.1216C16.7349 19.6673 16.8741 19.1515 16.875 18.6262L16.875 18.6255C16.8753 18.1762 16.7747 17.7326 16.5806 17.3274C16.3865 16.9221 16.1039 16.5657 15.7535 16.2843C15.4032 16.003 14.9942 15.8039 14.5566 15.7018L14.3862 16.4322L14.5566 15.7018C14.1196 15.5999 13.6652 15.5973 13.227 15.6942C12.6366 15.8229 12.0989 16.1274 11.6848 16.5675C11.2704 17.0081 10.9992 17.5639 10.907 18.1617C10.8149 18.7595 10.906 19.3712 11.1685 19.9161C11.3646 20.3233 11.6495 20.6789 12 20.9581V23.125V23.875H12.75H15H15.75Z" stroke="#00FFF2" stroke-width="1.5"/>
</svg>
