<svg width="227" height="327" viewBox="0 0 227 327" fill="none" xmlns="http://www.w3.org/2000/svg">
<path d="M35.3203 192.745H190.271V302.999L112.796 261.347L35.3203 302.999V192.745Z" fill="url(#paint0_linear_211_310)"/>
<circle cx="113.266" cy="112.762" r="111.623" fill="url(#paint1_linear_211_310)" stroke="url(#paint2_linear_211_310)" stroke-width="2.27801"/>
<path d="M95.151 71.3267C95.6352 68.6046 95.0838 66.1894 94.7475 65.3221C101.849 62.1196 107.659 64.6549 109.677 66.3228C111.291 67.2836 111.022 71.3934 110.686 73.3282L109.677 79.3329C109.354 80.6138 109.946 80.6672 110.282 80.5338C114.384 79.3329 122.791 76.8509 123.598 76.5307C124.405 76.2105 125.01 76.2638 125.211 76.3305C126.153 79.066 128.076 84.6169 128.238 84.9372C128.399 85.2574 128.305 86.0047 128.238 86.3382L117.949 89.5407L109.677 91.9426C107.901 92.1027 107.054 93.6105 106.852 94.3444L102.616 120.164L106.651 114.96C112.3 108.555 115.931 107.354 119.966 104.953C124.001 102.551 135.097 103.351 137.72 109.556C139.818 114.52 139.401 118.83 138.93 120.364L137.115 130.973C136.577 132.907 135.38 138.378 134.895 144.783C134.29 152.789 137.72 153.39 141.957 153.19C146.193 152.99 151.842 146.384 152.246 144.583C152.569 143.142 153.322 142.915 153.658 142.982C155.595 143.782 155.541 145.984 155.272 146.985C150.834 158.594 140.343 164.398 132.474 163.998C124.606 163.598 120.571 158.194 119.159 153.39C118.029 149.547 119.361 141.247 120.168 137.578C120.773 134.509 122.145 127.17 122.791 122.366C123.436 117.562 122.925 115.828 122.589 115.561C122.387 114.76 120.773 113.679 115.931 115.761C111.089 117.842 105.306 127.97 103.019 132.774L98.1772 145.184C98.0427 146.451 97.5316 149.867 96.5632 153.39C95.5948 156.913 96.0252 161.129 96.3615 162.797C90.5108 164.799 85.8706 163.798 82.6426 162.397C80.0602 161.276 80.2216 156.192 80.6251 153.79L88.2916 110.757C88.9641 107.088 90.3494 99.5484 90.5108 98.7478C90.6722 97.9472 90.1745 97.747 89.9055 97.747L83.4496 99.7486C81.2976 100.549 76.7516 102.19 75.7832 102.351C74.8148 102.511 74.3037 102.284 74.1692 102.15C73.4294 99.882 71.8289 95.065 71.3447 93.9441C70.8605 92.8232 71.2775 92.2761 71.5465 92.1427L78.6077 89.941C81.0287 89.1404 86.5969 87.4191 89.5021 86.9387C92.4073 86.4583 93.1336 85.0039 93.1336 84.3367C93.6043 81.1342 94.6668 74.0488 95.151 71.3267Z" fill="#FFA600"/>
<defs>
<linearGradient id="paint0_linear_211_310" x1="112.796" y1="302.999" x2="112.796" y2="192.745" gradientUnits="userSpaceOnUse">
<stop stop-color="#FFA601"/>
<stop offset="1" stop-color="#FFDD55"/>
</linearGradient>
<linearGradient id="paint1_linear_211_310" x1="24.4998" y1="9.24137e-06" x2="284.117" y2="330.312" gradientUnits="userSpaceOnUse">
<stop/>
<stop offset="1" stop-color="#FFDD55"/>
</linearGradient>
<linearGradient id="paint2_linear_211_310" x1="30.119" y1="-51.2552" x2="114.405" y2="113.901" gradientUnits="userSpaceOnUse">
<stop stop-color="#FFA600"/>
<stop offset="1" stop-color="#FFA600"/>
</linearGradient>
</defs>
</svg>
