<svg width="226" height="327" viewBox="0 0 226 327" fill="none" xmlns="http://www.w3.org/2000/svg">
<path d="M35.7578 193.688H190.708V303.941L113.233 262.29L35.7578 303.941V193.688Z" fill="url(#paint0_linear_211_315)"/>
<circle cx="112.762" cy="112.762" r="111.623" fill="url(#paint1_linear_211_315)" stroke="url(#paint2_linear_211_315)" stroke-width="2.27801"/>
<path d="M94.6466 71.3267C95.1308 68.6046 94.5794 66.1894 94.2431 65.3221C101.345 62.1196 107.155 64.6549 109.172 66.3228C110.786 67.2836 110.517 71.3934 110.181 73.3282L109.172 79.3329C108.85 80.6138 109.441 80.6672 109.778 80.5338C113.88 79.3329 122.286 76.8509 123.093 76.5307C123.9 76.2105 124.505 76.2638 124.707 76.3305C125.649 79.066 127.572 84.6169 127.733 84.9372C127.895 85.2574 127.801 86.0047 127.733 86.3382L117.444 89.5407L109.172 91.9426C107.397 92.1027 106.55 93.6105 106.348 94.3444L102.111 120.164L106.146 114.96C111.795 108.555 115.427 107.354 119.462 104.953C123.497 102.551 134.593 103.351 137.215 109.556C139.314 114.52 138.897 118.83 138.426 120.364L136.61 130.973C136.072 132.907 134.875 138.378 134.391 144.783C133.786 152.789 137.215 153.39 141.452 153.19C145.689 152.99 151.338 146.384 151.741 144.583C152.064 143.142 152.817 142.915 153.154 142.982C155.09 143.782 155.037 145.984 154.768 146.985C150.329 158.594 139.838 164.398 131.97 163.998C124.102 163.598 120.067 158.194 118.655 153.39C117.525 149.547 118.856 141.247 119.663 137.578C120.269 134.509 121.641 127.17 122.286 122.366C122.932 117.562 122.421 115.828 122.084 115.561C121.883 114.76 120.269 113.679 115.427 115.761C110.585 117.842 104.801 127.97 102.515 132.774L97.6728 145.184C97.5383 146.451 97.0272 149.867 96.0588 153.39C95.0905 156.913 95.5208 161.129 95.8571 162.797C90.0064 164.799 85.3662 163.798 82.1382 162.397C79.5558 161.276 79.7172 156.192 80.1207 153.79L87.7872 110.757C88.4597 107.088 89.845 99.5484 90.0064 98.7478C90.1678 97.9472 89.6701 97.747 89.4012 97.747L82.9452 99.7486C80.7932 100.549 76.2472 102.19 75.2788 102.351C74.3104 102.511 73.7993 102.284 73.6648 102.15C72.9251 99.882 71.3245 95.065 70.8403 93.9441C70.3562 92.8232 70.7731 92.2761 71.0421 92.1427L78.1033 89.941C80.5243 89.1404 86.0925 87.4191 88.9977 86.9387C91.9029 86.4583 92.6292 85.0039 92.6292 84.3367C93.0999 81.1342 94.1624 74.0488 94.6466 71.3267Z" fill="white"/>
<defs>
<linearGradient id="paint0_linear_211_315" x1="113.233" y1="303.941" x2="113.233" y2="193.688" gradientUnits="userSpaceOnUse">
<stop stop-color="#D9D9D9"/>
<stop offset="1" stop-color="#666666"/>
</linearGradient>
<linearGradient id="paint1_linear_211_315" x1="23.9949" y1="9.24137e-06" x2="283.612" y2="330.312" gradientUnits="userSpaceOnUse">
<stop/>
<stop offset="1" stop-color="white"/>
</linearGradient>
<linearGradient id="paint2_linear_211_315" x1="29.6141" y1="-51.2552" x2="113.901" y2="113.901" gradientUnits="userSpaceOnUse">
<stop stop-color="white"/>
<stop offset="1" stop-color="#5A5A5A"/>
</linearGradient>
</defs>
</svg>
