<svg width="126" height="126" viewBox="0 0 126 126" fill="none" xmlns="http://www.w3.org/2000/svg">
<rect x="1.64638" y="1.64638" width="121.832" height="121.832" rx="21.403" stroke="#00FFF2" stroke-width="3.29276"/>
<g clip-path="url(#clip0_211_266)">
<path d="M109.772 37.1272C109.206 35.0426 108.1 33.1422 106.567 31.6151C105.033 30.088 103.124 28.9876 101.03 28.4234C93.3644 26.342 62.5124 26.342 62.5124 26.342C62.5124 26.342 31.659 26.405 23.9933 28.4864C21.8994 29.0506 19.9904 30.1511 18.4566 31.6782C16.9228 33.2054 15.8175 35.1059 15.251 37.1906C12.9323 50.7505 12.0328 71.4127 15.3147 84.4302C15.8813 86.5148 16.9865 88.4153 18.5203 89.9424C20.0542 91.4694 21.9631 92.5699 24.057 93.134C31.7227 95.2154 62.5753 95.2154 62.5753 95.2154C62.5753 95.2154 93.4276 95.2154 101.093 93.134C103.187 92.5699 105.096 91.4695 106.63 89.9425C108.164 88.4154 109.269 86.5149 109.836 84.4302C112.281 70.8511 113.035 50.2016 109.772 37.1272Z" fill="#FF0000"/>
<path d="M52.6938 75.536L78.2879 60.7775L52.6938 46.019V75.536Z" fill="white"/>
</g>
<defs>
<clipPath id="clip0_211_266">
<rect width="98.7829" height="69.148" fill="white" transform="translate(13.1711 26.342)"/>
</clipPath>
</defs>
</svg>
