<svg width="193" height="71" viewBox="0 0 193 71" fill="none" xmlns="http://www.w3.org/2000/svg">
<rect x="1.375" y="1.125" width="191.25" height="69" rx="12.375" stroke="#00FFF2" stroke-opacity="0.15" stroke-width="0.75"/>
<rect x="7" y="6.75" width="180" height="58" rx="9" fill="url(#paint0_linear_21_253)"/>
<path d="M56.4723 42.75H53.9411L58.5497 29.6591H61.4773L66.0923 42.75H63.5611L60.0646 32.3438H59.9624L56.4723 42.75ZM56.5554 37.6172H63.4588V39.522H56.5554V37.6172ZM66.8143 46.4318V32.9318H69.0899V34.5554H69.2241C69.3434 34.3168 69.5118 34.0632 69.7291 33.7947C69.9464 33.522 70.2404 33.2898 70.6112 33.098C70.9819 32.902 71.4549 32.804 72.0302 32.804C72.7887 32.804 73.4727 32.9979 74.0821 33.3857C74.6957 33.7692 75.1815 34.3381 75.5395 35.0923C75.9017 35.8423 76.0828 36.7628 76.0828 37.8537C76.0828 38.9318 75.9059 39.848 75.5522 40.6023C75.1985 41.3565 74.717 41.9318 74.1076 42.3281C73.4983 42.7244 72.8079 42.9226 72.0366 42.9226C71.4741 42.9226 71.0075 42.8288 70.6368 42.6413C70.266 42.4538 69.9677 42.228 69.7419 41.9638C69.5203 41.6953 69.3477 41.4418 69.2241 41.2031H69.1282V46.4318H66.8143ZM69.0835 37.8409C69.0835 38.4759 69.173 39.032 69.352 39.5092C69.5352 39.9865 69.7973 40.3594 70.1382 40.6278C70.4833 40.892 70.901 41.0241 71.391 41.0241C71.9024 41.0241 72.3306 40.8878 72.6758 40.6151C73.021 40.3381 73.2809 39.9609 73.4556 39.4837C73.6346 39.0021 73.7241 38.4545 73.7241 37.8409C73.7241 37.2315 73.6368 36.6903 73.462 36.2173C73.2873 35.7443 73.0274 35.3736 72.6822 35.1051C72.337 34.8366 71.9066 34.7024 71.391 34.7024C70.8967 34.7024 70.477 34.8324 70.1318 35.0923C69.7866 35.3523 69.5245 35.7166 69.3456 36.1854C69.1708 36.6541 69.0835 37.206 69.0835 37.8409ZM77.1643 46.4318V32.9318H79.4399V34.5554H79.5741C79.6934 34.3168 79.8618 34.0632 80.0791 33.7947C80.2964 33.522 80.5904 33.2898 80.9612 33.098C81.3319 32.902 81.8049 32.804 82.3802 32.804C83.1387 32.804 83.8227 32.9979 84.4321 33.3857C85.0457 33.7692 85.5315 34.3381 85.8895 35.0923C86.2517 35.8423 86.4328 36.7628 86.4328 37.8537C86.4328 38.9318 86.2559 39.848 85.9022 40.6023C85.5485 41.3565 85.067 41.9318 84.4576 42.3281C83.8483 42.7244 83.1579 42.9226 82.3866 42.9226C81.8241 42.9226 81.3575 42.8288 80.9868 42.6413C80.616 42.4538 80.3177 42.228 80.0919 41.9638C79.8703 41.6953 79.6977 41.4418 79.5741 41.2031H79.4782V46.4318H77.1643ZM79.4335 37.8409C79.4335 38.4759 79.523 39.032 79.702 39.5092C79.8852 39.9865 80.1473 40.3594 80.4882 40.6278C80.8333 40.892 81.251 41.0241 81.741 41.0241C82.2524 41.0241 82.6806 40.8878 83.0258 40.6151C83.371 40.3381 83.6309 39.9609 83.8056 39.4837C83.9846 39.0021 84.0741 38.4545 84.0741 37.8409C84.0741 37.2315 83.9868 36.6903 83.812 36.2173C83.6373 35.7443 83.3774 35.3736 83.0322 35.1051C82.687 34.8366 82.2566 34.7024 81.741 34.7024C81.2467 34.7024 80.827 34.8324 80.4818 35.0923C80.1366 35.3523 79.8745 35.7166 79.6956 36.1854C79.5208 36.6541 79.4335 37.206 79.4335 37.8409ZM89.8282 29.6591V42.75H87.5143V29.6591H89.8282ZM92.7459 46.4318C92.4305 46.4318 92.1386 46.4063 91.8702 46.3551C91.606 46.3082 91.395 46.2528 91.2374 46.1889L91.7743 44.3864C92.1109 44.4844 92.4114 44.5313 92.6756 44.527C92.9398 44.5227 93.172 44.4396 93.3723 44.2777C93.5768 44.12 93.7494 43.8558 93.8901 43.4851L94.0882 42.9545L90.5278 32.9318H92.9824L95.2452 40.3466H95.3474L97.6166 32.9318H100.078L96.1465 43.9389C95.9632 44.4588 95.7203 44.9041 95.4178 45.2749C95.1152 45.6499 94.7445 45.9354 94.3055 46.1314C93.8709 46.3317 93.351 46.4318 92.7459 46.4318ZM115.204 29.6591V42.75H113.094L106.926 33.8331H106.817V42.75H104.446V29.6591H106.568L112.73 38.5824H112.845V29.6591H115.204ZM121.068 42.9418C120.109 42.9418 119.278 42.7308 118.575 42.3089C117.872 41.8871 117.327 41.2969 116.939 40.5384C116.555 39.7798 116.364 38.8935 116.364 37.8793C116.364 36.8651 116.555 35.9766 116.939 35.2138C117.327 34.451 117.872 33.8587 118.575 33.4368C119.278 33.0149 120.109 32.804 121.068 32.804C122.027 32.804 122.858 33.0149 123.561 33.4368C124.264 33.8587 124.807 34.451 125.191 35.2138C125.579 35.9766 125.773 36.8651 125.773 37.8793C125.773 38.8935 125.579 39.7798 125.191 40.5384C124.807 41.2969 124.264 41.8871 123.561 42.3089C122.858 42.7308 122.027 42.9418 121.068 42.9418ZM121.081 41.0881C121.601 41.0881 122.035 40.9453 122.385 40.6598C122.734 40.37 122.994 39.9822 123.165 39.4964C123.339 39.0107 123.427 38.4695 123.427 37.8729C123.427 37.272 123.339 36.7287 123.165 36.2429C122.994 35.7528 122.734 35.3629 122.385 35.0732C122.035 34.7834 121.601 34.6385 121.081 34.6385C120.548 34.6385 120.105 34.7834 119.751 35.0732C119.402 35.3629 119.14 35.7528 118.965 36.2429C118.795 36.7287 118.709 37.272 118.709 37.8729C118.709 38.4695 118.795 39.0107 118.965 39.4964C119.14 39.9822 119.402 40.37 119.751 40.6598C120.105 40.9453 120.548 41.0881 121.081 41.0881ZM128.582 42.75L125.807 32.9318H128.166L129.892 39.8352H129.981L131.746 32.9318H134.079L135.843 39.7969H135.939L137.639 32.9318H140.004L137.224 42.75H134.814L132.973 36.1151H132.839L130.998 42.75H128.582Z" fill="white"/>
<path d="M129.625 1.12495L179.799 0.826295C186.87 0.784204 192.625 6.50478 192.625 13.5761L192.625 22.5" stroke="url(#paint1_linear_21_253)" stroke-width="0.75"/>
<rect x="57.25" y="0.75" width="0.75" height="0.75" fill="#00FFF2"/>
<g filter="url(#filter0_f_21_253)">
<rect x="57.25" y="0.75" width="0.75" height="0.75" fill="#00FFF2"/>
</g>
<rect x="104.5" y="0.75" width="0.75" height="0.75" fill="#00FFF2"/>
<g filter="url(#filter1_f_21_253)">
<rect x="104.5" y="0.75" width="0.75" height="0.75" fill="#00FFF2"/>
</g>
<path d="M64 70.125L13.9002 69.7779C6.81703 69.7288 1.13171 63.9157 1.24 56.8332L1.37505 48" stroke="url(#paint2_linear_21_253)" stroke-width="0.75"/>
<defs>
<filter id="filter0_f_21_253" x="56.5" y="0" width="2.25" height="2.25" filterUnits="userSpaceOnUse" color-interpolation-filters="sRGB">
<feFlood flood-opacity="0" result="BackgroundImageFix"/>
<feBlend mode="normal" in="SourceGraphic" in2="BackgroundImageFix" result="shape"/>
<feGaussianBlur stdDeviation="0.375" result="effect1_foregroundBlur_21_253"/>
</filter>
<filter id="filter1_f_21_253" x="103.75" y="0" width="2.25" height="2.25" filterUnits="userSpaceOnUse" color-interpolation-filters="sRGB">
<feFlood flood-opacity="0" result="BackgroundImageFix"/>
<feBlend mode="normal" in="SourceGraphic" in2="BackgroundImageFix" result="shape"/>
<feGaussianBlur stdDeviation="0.375" result="effect1_foregroundBlur_21_253"/>
</filter>
<linearGradient id="paint0_linear_21_253" x1="97" y1="6.75" x2="97" y2="64.75" gradientUnits="userSpaceOnUse">
<stop stop-color="#00FFF2"/>
<stop offset="1" stop-color="#7E7E7E" stop-opacity="0.17"/>
</linearGradient>
<linearGradient id="paint1_linear_21_253" x1="180.465" y1="-19.5508" x2="149.713" y2="-25.307" gradientUnits="userSpaceOnUse">
<stop stop-color="#00FFF2"/>
<stop offset="1" stop-color="#999999" stop-opacity="0"/>
</linearGradient>
<linearGradient id="paint2_linear_21_253" x1="13.0556" y1="90.0773" x2="43.7652" y2="96.0566" gradientUnits="userSpaceOnUse">
<stop stop-color="#00FFF2"/>
<stop offset="1" stop-color="#999999" stop-opacity="0"/>
</linearGradient>
</defs>
</svg>
