<svg width="199" height="199" viewBox="0 0 199 199" fill="none" xmlns="http://www.w3.org/2000/svg">
<circle cx="99.4285" cy="99.4285" r="99.4285" fill="#00FFF2"/>
<path d="M125.969 77.7392C126.737 78.5067 127.168 79.5476 127.168 80.6329C127.168 81.7183 126.737 82.7592 125.969 83.5267L107.643 101.854L125.969 120.18C126.737 120.948 127.168 121.989 127.168 123.074C127.168 124.159 126.737 125.2 125.969 125.968C125.202 126.735 124.161 127.166 123.076 127.166C121.99 127.166 120.949 126.735 120.182 125.968L101.855 107.641L83.5283 125.968C82.7608 126.735 81.7199 127.166 80.6346 127.166C79.5492 127.166 78.5083 126.735 77.7409 125.968C76.9734 125.2 76.5423 124.159 76.5423 123.074C76.5423 121.989 76.9734 120.948 77.7409 120.18L96.0677 101.854L77.7409 83.5267C76.9734 82.7592 76.5423 81.7183 76.5423 80.6329C76.5423 79.5476 76.9734 78.5067 77.7409 77.7392C78.5083 76.9718 79.5492 76.5406 80.6346 76.5406C81.7199 76.5406 82.7608 76.9718 83.5283 77.7392L101.855 96.0661L120.182 77.7392C120.949 76.9718 121.99 76.5406 123.076 76.5406C124.161 76.5406 125.202 76.9718 125.969 77.7392Z" fill="black"/>
</svg>
