<svg width="126" height="126" viewBox="0 0 126 126" fill="none" xmlns="http://www.w3.org/2000/svg">
<rect x="1.64638" y="1.64638" width="121.832" height="121.832" rx="21.403" stroke="#00FFF2" stroke-width="3.29276"/>
<g clip-path="url(#clip0_211_270)">
<path fill-rule="evenodd" clip-rule="evenodd" d="M45.0021 36.2202C51.9885 36.2202 58.6887 38.9955 63.6288 43.9356C68.5689 48.8757 71.3442 55.576 71.3442 62.5623C71.3442 69.5487 68.5689 76.2489 63.6288 81.189C58.6887 86.1291 51.9885 88.9044 45.0021 88.9044C38.0158 88.9044 31.3156 86.1291 26.3755 81.189C21.4354 76.2489 18.66 69.5487 18.66 62.5623C18.66 55.576 21.4354 48.8757 26.3755 43.9356C31.3156 38.9955 38.0158 36.2202 45.0021 36.2202ZM84.5153 40.6106C91.1008 40.6106 95.4912 50.4406 95.4912 62.5623C95.4912 74.6841 91.1008 84.5141 84.5153 84.5141C77.9298 84.5141 73.5394 74.6841 73.5394 62.5623C73.5394 50.4406 77.9298 40.6106 84.5153 40.6106ZM102.077 42.8057C103.745 42.8057 105.203 46.4366 105.94 52.6665L106.147 54.6114L106.23 55.6431L106.362 57.812L106.406 58.9491L106.458 61.3242L106.467 62.5623L106.458 63.8004L106.406 66.1756L106.362 67.3171L106.23 69.4815L106.142 70.5132L105.945 72.4582C105.203 78.6925 103.749 82.3189 102.077 82.3189C100.408 82.3189 98.9508 78.6881 98.2132 72.4582L98.0068 70.5132L97.9234 69.4815L97.7917 67.3127L97.7478 66.1756L97.6951 63.8004V61.3242L97.7478 58.9491L97.7917 57.8076L97.9234 55.6431L98.0112 54.6114L98.2088 52.6665C98.9508 46.4322 100.404 42.8057 102.077 42.8057ZM45.0021 45.0009C40.3446 45.0009 35.8778 46.8511 32.5844 50.1445C29.2909 53.4379 27.4407 57.9047 27.4407 62.5623C27.4407 67.2199 29.2909 71.6867 32.5844 74.9801C35.8778 78.2735 40.3446 80.1237 45.0021 80.1237C49.6597 80.1237 54.1265 78.2735 57.4199 74.9801C60.7133 71.6867 62.5635 67.2199 62.5635 62.5623C62.5635 57.9047 60.7133 53.4379 57.4199 50.1445C54.1265 46.8511 49.6597 45.0009 45.0021 45.0009ZM84.3221 51.1606C82.7284 54.6729 82.3201 58.7603 82.3201 62.5623C82.3201 66.3644 82.724 70.4562 84.3221 73.9641C84.4011 74.1309 84.6294 74.1309 84.7085 73.9641C86.3022 70.4518 86.7105 66.3644 86.7105 62.5623C86.7105 58.7603 86.3066 54.6685 84.7085 51.1606C84.6921 51.123 84.6651 51.091 84.6308 51.0685C84.5964 51.046 84.5563 51.0341 84.5153 51.0341C84.4743 51.0341 84.4342 51.046 84.3998 51.0685C84.3655 51.091 84.3385 51.123 84.3221 51.1606Z" fill="white"/>
</g>
<defs>
<clipPath id="clip0_211_270">
<rect width="105.368" height="105.368" fill="white" transform="translate(9.8783 9.87842)"/>
</clipPath>
</defs>
</svg>
