<svg width="126" height="126" viewBox="0 0 126 126" fill="none" xmlns="http://www.w3.org/2000/svg">
<rect x="1.64638" y="1.64638" width="121.832" height="121.832" rx="21.403" stroke="#00FFF2" stroke-width="3.29276"/>
<g clip-path="url(#clip0_211_275)">
<path d="M62.5625 23.0493C52.0853 23.0493 42.028 27.2149 34.6255 34.6224C27.2153 42.0328 23.0515 52.0827 23.0493 62.5625C23.0493 73.0378 27.2168 83.0951 34.6255 90.5026C42.028 97.9101 52.0853 102.076 62.5625 102.076C73.0397 102.076 83.097 97.9101 90.4995 90.5026C97.9083 83.0951 102.076 73.0378 102.076 62.5625C102.076 52.0872 97.9083 42.0298 90.4995 34.6224C83.097 27.2149 73.0397 23.0493 62.5625 23.0493Z" fill="url(#paint0_linear_211_275)"/>
<path d="M40.9351 62.1454C52.4557 57.1272 60.1361 53.8188 63.9763 52.2201C74.9535 47.6558 77.2317 46.863 78.7196 46.8362C79.0468 46.8309 79.7753 46.9118 80.2507 47.2961C80.6459 47.6203 80.757 48.0586 80.8126 48.3664C80.862 48.6738 80.9299 49.3746 80.8743 49.9216C80.2816 56.1696 77.7071 71.3316 76.3982 78.3297C75.8487 81.2907 74.7559 82.2835 73.7002 82.3804C71.4035 82.5916 69.6624 80.8641 67.4398 79.4077C63.9639 77.1276 62.0006 75.7089 58.6235 73.4844C54.7215 70.9136 57.2528 69.5004 59.4755 67.1913C60.0558 66.5869 70.1687 57.3908 70.3601 56.5567C70.3848 56.4524 70.4095 56.0634 70.1749 55.8584C69.9464 55.6529 69.6069 55.7232 69.3599 55.7788C69.008 55.8578 63.4576 59.5301 52.6903 66.7949C51.116 67.8779 49.6898 68.4057 48.4056 68.3779C46.9979 68.3477 44.2814 67.5803 42.2625 66.9246C39.793 66.1201 37.8235 65.6948 37.9964 64.3285C38.0828 63.6172 39.0644 62.8893 40.9351 62.1454Z" fill="white"/>
</g>
<defs>
<linearGradient id="paint0_linear_211_275" x1="3974.37" y1="23.0493" x2="3974.37" y2="7925.68" gradientUnits="userSpaceOnUse">
<stop stop-color="#2AABEE"/>
<stop offset="1" stop-color="#229ED9"/>
</linearGradient>
<clipPath id="clip0_211_275">
<rect width="79.0263" height="79.0263" fill="white" transform="translate(23.0493 23.0493)"/>
</clipPath>
</defs>
</svg>
