<svg width="541" height="567" viewBox="0 0 541 567" fill="none" xmlns="http://www.w3.org/2000/svg">
<g opacity="0.1">
<path d="M35.3846 237.283L175.132 46.9304C195.655 18.9747 231.899 7.4969 264.773 18.5422L486.173 92.9285C518.631 103.834 540.498 134.249 540.498 168.489V396.299C540.498 430.174 519.087 460.349 487.113 471.538L269.578 547.656C237.029 559.045 200.847 548.213 179.911 520.812L36.2997 332.85C14.8142 304.729 14.4415 265.809 35.3846 237.283Z" fill="url(#paint0_linear_211_283)" stroke="url(#paint1_linear_211_283)" stroke-width="0.797117"/>
<circle cx="301.761" cy="283.375" r="166.887" fill="url(#paint2_linear_211_283)" stroke="url(#paint3_linear_211_283)" stroke-width="3.40586"/>
<path d="M274.679 221.425C275.403 217.355 274.578 213.744 274.075 212.447C284.693 207.659 293.38 211.45 296.396 213.943C298.809 215.38 298.407 221.524 297.905 224.417L296.396 233.395C295.914 235.31 296.799 235.39 297.301 235.19C303.435 233.395 316.003 229.684 317.209 229.205C318.416 228.726 319.321 228.806 319.622 228.906C321.03 232.996 323.905 241.295 324.147 241.774C324.388 242.253 324.247 243.37 324.147 243.868L308.763 248.657L296.396 252.248C293.742 252.487 292.475 254.741 292.173 255.839L285.839 294.442L291.872 286.661C300.318 277.085 305.747 275.29 311.78 271.699C317.812 268.108 334.402 269.305 338.324 278.582C341.461 286.003 340.837 292.447 340.133 294.741L337.419 310.601C336.614 313.494 334.825 321.674 334.101 331.25C333.196 343.22 338.324 344.118 344.658 343.818C350.992 343.519 359.438 333.644 360.041 330.951C360.524 328.796 361.65 328.457 362.153 328.557C365.048 329.754 364.968 333.045 364.566 334.542C357.93 351.898 342.245 360.576 330.481 359.978C318.717 359.379 312.685 351.3 310.573 344.118C308.884 338.372 310.875 325.963 312.081 320.477C312.986 315.888 315.037 304.916 316.003 297.734C316.968 290.552 316.204 287.958 315.701 287.559C315.399 286.362 312.986 284.746 305.747 287.858C298.508 290.971 289.861 306.113 286.442 313.295L279.203 331.848C279.002 333.744 278.238 338.851 276.79 344.118C275.342 349.384 275.986 355.689 276.488 358.182C267.741 361.175 260.803 359.679 255.977 357.584C252.116 355.908 252.358 348.307 252.961 344.716L264.423 280.377C265.429 274.891 267.5 263.619 267.741 262.422C267.982 261.225 267.238 260.926 266.836 260.926L257.184 263.918C253.966 265.115 247.17 267.569 245.722 267.809C244.274 268.048 243.51 267.709 243.309 267.509C242.203 264.118 239.81 256.916 239.086 255.24C238.362 253.564 238.985 252.746 239.387 252.547L249.945 249.255C253.564 248.058 261.889 245.484 266.233 244.766C270.577 244.048 271.662 241.873 271.662 240.876C272.366 236.088 273.955 225.494 274.679 221.425Z" fill="#00FFF2"/>
</g>
<defs>
<linearGradient id="paint0_linear_211_283" x1="0.0527301" y1="48.0758" x2="540.498" y2="518.674" gradientUnits="userSpaceOnUse">
<stop stop-color="#010909"/>
<stop offset="1" stop-color="#013F3C"/>
</linearGradient>
<linearGradient id="paint1_linear_211_283" x1="73.5108" y1="6.98016e-06" x2="467.04" y2="566.75" gradientUnits="userSpaceOnUse">
<stop stop-color="#00FFF2"/>
<stop offset="1" stop-color="#666666"/>
</linearGradient>
<linearGradient id="paint2_linear_211_283" x1="169.046" y1="114.785" x2="557.201" y2="608.635" gradientUnits="userSpaceOnUse">
<stop/>
<stop offset="1" stop-color="#016863"/>
</linearGradient>
<linearGradient id="paint3_linear_211_283" x1="177.447" y1="38.153" x2="303.464" y2="285.078" gradientUnits="userSpaceOnUse">
<stop stop-color="#00FFF2"/>
<stop offset="1" stop-color="#545454" stop-opacity="0.37"/>
</linearGradient>
</defs>
</svg>
