<svg width="226" height="327" viewBox="0 0 226 327" fill="none" xmlns="http://www.w3.org/2000/svg">
<path d="M35.7583 193.688H190.709V303.941L113.234 262.29L35.7583 303.941V193.688Z" fill="url(#paint0_linear_211_320)"/>
<circle cx="112.762" cy="112.762" r="111.623" fill="url(#paint1_linear_211_320)" stroke="url(#paint2_linear_211_320)" stroke-width="2.27801"/>
<path d="M94.6466 71.326C95.1308 68.6039 94.5794 66.1887 94.2431 65.3213C101.345 62.1189 107.155 64.6542 109.172 66.3221C110.786 67.2829 110.517 71.3927 110.181 73.3275L109.172 79.3321C108.85 80.6131 109.441 80.6665 109.778 80.533C113.88 79.3321 122.286 76.8502 123.093 76.53C123.9 76.2097 124.505 76.2631 124.707 76.3298C125.649 79.0652 127.572 84.6162 127.733 84.9364C127.895 85.2567 127.801 86.0039 127.733 86.3375L117.444 89.54L109.172 91.9418C107.397 92.1019 106.55 93.6098 106.348 94.3437L102.111 120.164L106.146 114.96C111.795 108.555 115.427 107.354 119.462 104.952C123.497 102.55 134.593 103.351 137.215 109.555C139.314 114.519 138.897 118.829 138.426 120.364L136.61 130.972C136.072 132.907 134.875 138.378 134.391 144.782C133.786 152.789 137.215 153.389 141.452 153.189C145.689 152.989 151.338 146.384 151.741 144.582C152.064 143.141 152.817 142.914 153.154 142.981C155.09 143.782 155.037 145.983 154.768 146.984C150.329 158.593 139.838 164.398 131.97 163.997C124.102 163.597 120.067 158.193 118.655 153.389C117.525 149.546 118.856 141.246 119.663 137.577C120.269 134.508 121.641 127.169 122.286 122.365C122.932 117.562 122.421 115.827 122.084 115.56C121.883 114.759 120.269 113.679 115.427 115.76C110.585 117.842 104.801 127.97 102.515 132.773L97.6728 145.183C97.5383 146.45 97.0272 149.866 96.0588 153.389C95.0905 156.912 95.5208 161.128 95.8571 162.796C90.0064 164.798 85.3662 163.797 82.1382 162.396C79.5558 161.275 79.7172 156.191 80.1207 153.789L87.7872 110.756C88.4597 107.087 89.845 99.5477 90.0064 98.7471C90.1678 97.9464 89.6701 97.7463 89.4012 97.7463L82.9452 99.7478C80.7932 100.548 76.2472 102.19 75.2788 102.35C74.3104 102.51 73.7993 102.283 73.6648 102.15C72.9251 99.8813 71.3245 95.0642 70.8403 93.9434C70.3562 92.8225 70.7731 92.2754 71.0421 92.142L78.1033 89.9403C80.5243 89.1397 86.0925 87.4183 88.9977 86.938C91.9029 86.4576 92.6292 85.0032 92.6292 84.336C93.0999 81.1335 94.1624 74.0481 94.6466 71.326Z" fill="#823600"/>
<defs>
<linearGradient id="paint0_linear_211_320" x1="113.234" y1="303.941" x2="113.234" y2="193.688" gradientUnits="userSpaceOnUse">
<stop stop-color="#452D00"/>
<stop offset="1" stop-color="#4E2000"/>
</linearGradient>
<linearGradient id="paint1_linear_211_320" x1="23.9949" y1="9.24137e-06" x2="283.612" y2="330.312" gradientUnits="userSpaceOnUse">
<stop/>
<stop offset="1" stop-color="#452D00"/>
</linearGradient>
<linearGradient id="paint2_linear_211_320" x1="29.6141" y1="-51.2552" x2="113.901" y2="113.901" gradientUnits="userSpaceOnUse">
<stop stop-color="#452D00"/>
<stop offset="1" stop-color="#4E2000"/>
</linearGradient>
</defs>
</svg>
