<svg width="27" height="27" viewBox="0 0 27 27" fill="none" xmlns="http://www.w3.org/2000/svg">
<path d="M6.49219 3.28125C5.83951 3.28125 5.21356 3.54053 4.75204 4.00204C4.29053 4.46356 4.03125 5.08951 4.03125 5.74219V7.69945C4.03125 8.55258 4.47422 9.34336 5.19773 9.79125L11.5404 13.7123C10.5757 14.2321 9.81199 15.059 9.3704 16.062C8.92882 17.065 8.83458 18.1866 9.10263 19.2492C9.37067 20.3117 9.98566 21.2545 10.8501 21.928C11.7146 22.6014 12.7791 22.9672 13.875 22.9672C14.9709 22.9672 16.0354 22.6014 16.8999 21.928C17.7643 21.2545 18.3793 20.3117 18.6474 19.2492C18.9154 18.1866 18.8212 17.065 18.3796 16.062C17.938 15.059 17.1743 14.2321 16.2096 13.7123L22.5523 9.79125C22.9087 9.57078 23.203 9.26291 23.4071 8.89683C23.6113 8.53075 23.7185 8.1186 23.7188 7.69945V5.74219C23.7188 5.08951 23.4595 4.46356 22.998 4.00204C22.5364 3.54053 21.9105 3.28125 21.2578 3.28125H6.49219ZM5.67188 5.74219C5.67188 5.52463 5.7583 5.31598 5.91214 5.16214C6.06598 5.0083 6.27463 4.92187 6.49219 4.92187H8.95312V10.185L6.0607 8.39672C5.94188 8.32323 5.84379 8.2206 5.77574 8.09858C5.7077 7.97655 5.67194 7.83917 5.67188 7.69945V5.74219ZM10.5938 11.1989V4.92187H17.1562V11.1989L14.3065 12.9609C14.1768 13.0411 14.0274 13.0836 13.875 13.0836C13.7226 13.0836 13.5732 13.0411 13.4435 12.9609L10.5938 11.1989ZM18.7969 10.185V4.92187H21.2578C21.4754 4.92187 21.684 5.0083 21.8379 5.16214C21.9917 5.31598 22.0781 5.52463 22.0781 5.74219V7.69945C22.0781 7.83917 22.0423 7.97655 21.9743 8.09858C21.9062 8.2206 21.8081 8.32323 21.6893 8.39672L18.7969 10.185ZM10.5938 18.0469C10.5938 17.1766 10.9395 16.342 11.5548 15.7267C12.1702 15.1113 13.0048 14.7656 13.875 14.7656C14.7452 14.7656 15.5798 15.1113 16.1952 15.7267C16.8105 16.342 17.1562 17.1766 17.1562 18.0469C17.1562 18.9171 16.8105 19.7517 16.1952 20.3671C15.5798 20.9824 14.7452 21.3281 13.875 21.3281C13.0048 21.3281 12.1702 20.9824 11.5548 20.3671C10.9395 19.7517 10.5938 18.9171 10.5938 18.0469Z" fill="#0AE1D7"/>
</svg>
