<svg width="184" height="184" viewBox="0 0 184 184" fill="none" xmlns="http://www.w3.org/2000/svg">
<path d="M130.281 53.8438H99.6562V69.1562H130.281C142.914 69.1562 153.25 79.4922 153.25 92.125C153.25 104.758 142.914 115.094 130.281 115.094H99.6562V130.406H130.281C151.412 130.406 168.562 113.256 168.562 92.125C168.562 70.9938 151.412 53.8438 130.281 53.8438ZM84.3438 115.094H53.7188C41.0859 115.094 30.75 104.758 30.75 92.125C30.75 79.4922 41.0859 69.1562 53.7188 69.1562H84.3438V53.8438H53.7188C32.5875 53.8438 15.4375 70.9938 15.4375 92.125C15.4375 113.256 32.5875 130.406 53.7188 130.406H84.3438V115.094ZM61.375 84.4688H122.625V99.7812H61.375V84.4688Z" fill="white"/>
</svg>
