<svg width="28" height="28" viewBox="0 0 28 28" fill="none" xmlns="http://www.w3.org/2000/svg">
<path d="M18.5625 13H18.375V12.8125V6.25C18.3758 5.632 18.1556 5.1025 17.7146 4.6615C17.2736 4.2205 16.7438 4 16.125 4H11.625M18.5625 13L11.625 4M18.5625 13H22.875C23.4938 13 24.0236 13.2205 24.4646 13.6615C24.9056 14.1025 25.1258 14.632 25.125 15.25V22C25.125 22.6188 24.9049 23.1486 24.4646 23.5896C24.0244 24.0306 23.4945 24.2508 22.875 24.25H4.875C4.25625 24.25 3.72675 24.0299 3.2865 23.5896M18.5625 13L3.2865 23.5896M11.625 4V4.1875H11.6251C11.6252 4.1875 11.6252 4.1875 11.6252 4.1875L11.625 4ZM3.2865 23.5896L3.41908 23.457C3.01377 23.0517 2.81321 22.5694 2.8125 21.9999L3.2865 23.5896ZM4.6875 22V22.1875H4.875H9.375H9.5625V22V13V12.8125H9.375H4.875H4.6875V13V22ZM11.4375 22V22.1875H11.625H16.125H16.3125V22V6.25V6.0625H16.125H11.625H11.4375V6.25V22ZM18.1875 22V22.1875H18.375H22.875H23.0625V22V15.25V15.0625H22.875H18.375H18.1875V15.25V22ZM4.87523 10.9375L4.875 10.75V10.9375H4.87523Z" fill="#0AE1D7" stroke="#000F0C" stroke-width="0.375"/>
</svg>
