<svg width="220" height="220" viewBox="0 0 220 220" fill="none" xmlns="http://www.w3.org/2000/svg">
<path d="M46.7059 92.4261C36.099 90.0231 26.6243 84.0852 19.8372 75.5872C13.0501 67.0892 9.3539 56.5361 9.35547 45.6605V34.2453C9.35547 25.4237 16.5151 18.2641 25.3367 18.2641H46.925C49.0802 12.9127 54.3221 9.13196 60.4406 9.13196H159.177C165.296 9.13196 170.538 12.9127 172.693 18.2641H195.423C204.244 18.2641 211.404 25.4237 211.404 34.2453V45.6605C211.406 56.7436 207.569 67.4853 200.545 76.0581C193.52 84.6309 183.743 90.5053 172.875 92.6818C170.974 104.07 166.029 114.731 158.563 123.538C151.097 132.345 141.389 138.968 130.466 142.708L132.575 170.131L132.886 170.414C133.607 171.008 135.653 172.268 140.52 172.99C148.173 174.122 155.47 180.387 155.47 189.491V196.341H176.017C177.833 196.341 179.575 197.062 180.86 198.347C182.144 199.631 182.866 201.373 182.866 203.19C182.866 205.006 182.144 206.748 180.86 208.033C179.575 209.317 177.833 210.039 176.017 210.039H43.6009C41.7845 210.039 40.0424 209.317 38.7579 208.033C37.4735 206.748 36.7519 205.006 36.7519 203.19C36.7519 201.373 37.4735 199.631 38.7579 198.347C40.0424 197.062 41.7845 196.341 43.6009 196.341H64.1482V189.491C64.1482 180.396 71.4539 174.122 79.0975 172.99C83.965 172.259 86.0105 171.008 86.732 170.414L87.0425 170.131L89.152 142.708C78.1871 138.953 68.4473 132.291 60.9719 123.434C53.4964 114.577 48.5657 103.857 46.7059 92.417V92.4261ZM59.5822 23.6886V82.189C59.5822 95.5099 64.8739 108.285 74.2932 117.705C83.7126 127.124 96.4879 132.416 109.809 132.416C123.13 132.416 135.905 127.124 145.325 117.705C154.744 108.285 160.036 95.5099 160.036 82.189V23.6886C160.036 23.4609 159.945 23.2426 159.784 23.0816C159.623 22.9206 159.405 22.8301 159.177 22.8301H60.4406C60.2129 22.8301 59.9946 22.9206 59.8336 23.0816C59.6726 23.2426 59.5822 23.4609 59.5822 23.6886ZM102.658 145.721L100.695 171.227L100.686 171.419L100.658 171.812C100.625 172.263 100.558 172.712 100.458 173.154C100.001 175.318 98.6859 178.332 95.4075 181.008C92.2295 183.619 87.6178 185.574 81.1066 186.533C80.1594 186.663 79.2807 187.099 78.6044 187.775C78.368 187.994 78.1789 188.26 78.0486 188.555C77.9183 188.85 77.8495 189.169 77.8464 189.491V196.341H141.771V189.491C141.768 189.169 141.699 188.85 141.569 188.555C141.439 188.26 141.25 187.994 141.013 187.775C140.337 187.099 139.458 186.663 138.511 186.533C132 185.574 127.388 183.61 124.201 181.017C120.932 178.332 119.617 175.318 119.16 173.163C119.029 172.593 118.952 172.012 118.932 171.428L118.923 171.227L116.959 145.721C112.207 146.256 107.41 146.256 102.658 145.721ZM173.734 78.3352C180.687 76.1487 186.76 71.8009 191.072 65.9243C195.383 60.0478 197.707 52.9489 197.706 45.6605V34.2453C197.706 33.6398 197.465 33.0591 197.037 32.631C196.609 32.2028 196.028 31.9623 195.423 31.9623H173.734V78.3352ZM45.884 31.9623H25.3367C24.7312 31.9623 24.1505 32.2028 23.7223 32.631C23.2942 33.0591 23.0537 33.6398 23.0537 34.2453V45.6605C23.0509 52.7445 25.2451 59.6551 29.334 65.44C33.4228 71.2249 39.2051 75.5994 45.884 77.9608V31.9623Z" fill="url(#paint0_linear_211_333)"/>
<defs>
<linearGradient id="paint0_linear_211_333" x1="110.38" y1="9.13196" x2="110.38" y2="210.039" gradientUnits="userSpaceOnUse">
<stop stop-color="#00FFF2"/>
<stop offset="1" stop-color="#22AAA1"/>
</linearGradient>
</defs>
</svg>
