<svg width="537" height="537" viewBox="0 0 537 537" fill="none" xmlns="http://www.w3.org/2000/svg">
<g opacity="0.2">
<circle cx="268.619" cy="268.875" r="265.417" fill="url(#paint0_linear_211_328)" stroke="url(#paint1_linear_211_328)" stroke-width="5.41667"/>
<path d="M225.546 170.349C226.698 163.877 225.386 158.134 224.587 156.072C241.473 148.457 255.289 154.485 260.086 158.451C263.924 160.736 263.284 170.508 262.485 175.109L260.086 189.386C259.318 192.432 260.726 192.559 261.525 192.242C271.279 189.386 291.268 183.485 293.187 182.724C295.105 181.962 296.545 182.089 297.024 182.248C299.263 188.752 303.836 201.951 304.22 202.712C304.604 203.474 304.38 205.251 304.22 206.044L279.754 213.659L260.086 219.37C255.864 219.751 253.85 223.336 253.37 225.081L243.296 286.476L252.89 274.102C266.322 258.872 274.957 256.016 284.552 250.305C294.146 244.594 320.531 246.498 326.767 261.252C331.756 273.055 330.764 283.303 329.645 286.952L325.328 312.176C324.048 316.776 321.202 329.785 320.051 345.015C318.612 364.052 326.767 365.48 336.841 365.004C346.915 364.528 360.347 348.822 361.307 344.539C362.074 341.112 363.865 340.573 364.665 340.731C369.27 342.635 369.142 347.87 368.502 350.25C357.949 377.854 333.003 391.656 314.294 390.704C295.585 389.752 285.991 376.902 282.633 365.48C279.946 356.342 283.112 336.607 285.031 327.881C286.471 320.584 289.733 303.133 291.268 291.711C292.803 280.289 291.588 276.164 290.788 275.529C290.308 273.626 286.471 271.056 274.957 276.005C263.444 280.955 249.692 305.037 244.255 316.459L232.742 345.967C232.422 348.981 231.207 357.103 228.904 365.48C226.602 373.856 227.625 383.882 228.425 387.848C214.513 392.607 203.479 390.228 195.804 386.896C189.663 384.231 190.047 372.143 191.007 366.431L209.236 264.107C210.835 255.382 214.129 237.455 214.513 235.551C214.897 233.648 213.713 233.172 213.074 233.172L197.723 237.931C192.606 239.835 181.796 243.737 179.493 244.118C177.191 244.499 175.975 243.959 175.656 243.642C173.897 238.248 170.091 226.794 168.94 224.129C167.788 221.464 168.78 220.163 169.419 219.846L186.209 214.611C191.966 212.707 205.206 208.614 212.114 207.472C219.022 206.33 220.749 202.871 220.749 201.285C221.869 193.67 224.395 176.822 225.546 170.349Z" fill="#00FFF2"/>
</g>
<defs>
<linearGradient id="paint0_linear_211_328" x1="57.5489" y1="0.750022" x2="674.869" y2="786.167" gradientUnits="userSpaceOnUse">
<stop/>
<stop offset="1" stop-color="#016863"/>
</linearGradient>
<linearGradient id="paint1_linear_211_328" x1="70.9103" y1="-121.125" x2="271.327" y2="271.583" gradientUnits="userSpaceOnUse">
<stop stop-color="#00FFF2"/>
<stop offset="1" stop-color="#545454" stop-opacity="0.37"/>
</linearGradient>
</defs>
</svg>
