<svg width="116" height="116" viewBox="0 0 116 116" fill="none" xmlns="http://www.w3.org/2000/svg">
<path d="M33.6249 66.3838C36.086 66.3838 38.1764 65.524 39.896 63.8044C41.6156 62.0848 42.4754 59.9945 42.4754 57.5333C42.4754 55.0722 41.6156 52.9818 39.896 51.2622C38.1764 49.5426 36.086 48.6828 33.6249 48.6828C31.1637 48.6828 29.0734 49.5426 27.3538 51.2622C25.6342 52.9818 24.7744 55.0722 24.7744 57.5333C24.7744 59.9945 25.6342 62.0848 27.3538 63.8044C29.0734 65.524 31.1637 66.3838 33.6249 66.3838ZM33.6249 80.2158C27.2323 80.2158 21.853 78.0327 17.4869 73.6666C13.1271 69.3036 10.9473 63.9259 10.9473 57.5333C10.9473 51.1408 13.1303 45.7614 17.4964 41.3953C21.8626 37.0292 27.2387 34.8493 33.6249 34.8557C39.0522 34.8557 43.7523 36.3867 47.7253 39.4488C51.6982 42.5108 54.2441 46.1434 55.3628 50.3465H98.7475L105.91 57.5094L94.0202 70.1427L85.256 63.5312L76.4966 70.4447L69.0317 64.7298H55.3676C54.2297 69.0096 51.6599 72.6613 47.6581 75.685C43.6564 78.7087 38.9786 80.2173 33.6249 80.211" fill="white"/>
</svg>
