<svg width="116" height="116" viewBox="0 0 116 116" fill="none" xmlns="http://www.w3.org/2000/svg">
<path d="M33.6249 67.3179C36.086 67.3179 38.1764 66.4581 39.896 64.7385C41.6156 63.0189 42.4754 60.9286 42.4754 58.4674C42.4754 56.0063 41.6156 53.9159 39.896 52.1963C38.1764 50.4767 36.086 49.6169 33.6249 49.6169C31.1637 49.6169 29.0734 50.4767 27.3538 52.1963C25.6342 53.9159 24.7744 56.0063 24.7744 58.4674C24.7744 60.9286 25.6342 63.0189 27.3538 64.7385C29.0734 66.4581 31.1637 67.3179 33.6249 67.3179ZM33.6249 81.1498C27.2323 81.1498 21.853 78.9668 17.4869 74.6006C13.1271 70.2377 10.9473 64.86 10.9473 58.4674C10.9473 52.0749 13.1303 46.6955 17.4964 42.3294C21.8626 37.9633 27.2387 35.7834 33.6249 35.7898C39.0522 35.7898 43.7523 37.3208 47.7253 40.3829C51.6982 43.4449 54.2441 47.0775 55.3628 51.2806H98.7475L105.91 58.4434L94.0202 71.0767L85.256 64.4652L76.4966 71.3788L69.0317 65.6638H55.3676C54.2297 69.9437 51.6599 73.5954 47.6581 76.6191C43.6564 79.6428 38.9786 81.1514 33.6249 81.145" fill="white"/>
</svg>
