<svg width="27" height="27" viewBox="0 0 27 27" fill="none" xmlns="http://www.w3.org/2000/svg">
<path d="M17.3477 24.0625V22.9589C17.3522 22.6702 17.47 22.3949 17.6756 22.1921C17.8812 21.9894 18.1582 21.8755 18.4469 21.875H18.5289C20.0952 21.8619 21.4405 20.7747 21.7598 19.2631L21.7708 19.2062L22.3395 16.4062L23.3677 15.8988C23.92 15.6275 24.1945 15.4908 24.2536 15.2425C24.3138 14.9931 24.1289 14.7503 23.7603 14.2636L21.6734 11.5205C21.4656 11.247 21.3617 11.1114 21.307 10.967C21.2523 10.8227 21.2338 10.617 21.1998 10.2091C20.8236 5.71703 17.0086 2.1875 12.3569 2.1875C7.45688 2.1875 3.48438 6.10531 3.48438 10.9375C3.48438 13.9453 5.02328 16.5977 7.36719 18.1727M7.36719 18.1727V24.0625M7.36719 18.1727C8.05153 18.6354 8.79795 18.9988 9.58422 19.2522" stroke="#0AE1D7" stroke-width="1.5" stroke-linecap="round" stroke-linejoin="round"/>
<path d="M16.0625 9.84375L17.0688 10.7111C17.492 11.0753 17.7031 11.258 17.7031 11.4844C17.7031 11.7108 17.492 11.8934 17.0688 12.2577L16.0625 13.125M8.40625 9.84375L7.4 10.7111C6.97672 11.0753 6.76562 11.258 6.76562 11.4844C6.76562 11.7108 6.97672 11.8934 7.4 12.2577L8.40625 13.125M13.3281 8.75L11.1406 14.2188" stroke="#0AE1D7" stroke-width="1.5" stroke-linecap="round" stroke-linejoin="round"/>
</svg>
