<svg width="112" height="111" viewBox="0 0 112 111" fill="none" xmlns="http://www.w3.org/2000/svg">
<path d="M73.9013 55.9136C80.7117 59.1284 86.5186 64.1363 90.6995 70.4003C94.8803 76.6642 97.2774 83.948 97.6337 91.4706C97.6811 92.1597 97.5905 92.8513 97.367 93.5049C97.1436 94.1584 96.7918 94.7608 96.3324 95.2765C95.873 95.7923 95.3152 96.2111 94.6917 96.5084C94.0682 96.8057 93.3917 96.9754 92.7017 97.0076C92.0118 97.0399 91.3223 96.934 90.6739 96.6961C90.0254 96.4583 89.431 96.0933 88.9255 95.6227C88.42 95.152 88.0136 94.5851 87.7301 93.9552C87.4467 93.3253 87.292 92.6452 87.275 91.9547C86.898 83.9646 83.4586 76.4265 77.6706 70.9052C71.8827 65.3839 64.1909 62.3035 56.1919 62.3035C48.1929 62.3035 40.501 65.3839 34.7131 70.9052C28.9252 76.4265 25.4858 83.9646 25.1088 91.9547C25.0157 93.3071 24.3967 94.5694 23.3844 95.4711C22.372 96.3728 21.0469 96.8422 19.6927 96.7789C18.3385 96.7157 17.063 96.1247 16.1392 95.1325C15.2153 94.1403 14.7167 92.8259 14.7501 91.4706C15.1057 83.9488 17.5018 76.6655 21.6814 70.4016C25.861 64.1377 31.6665 59.1294 38.4756 55.9136C34.1123 52.2741 30.976 47.3789 29.4933 41.8939C28.0106 36.4088 28.2536 30.6002 30.1891 25.2581C32.1245 19.916 35.6586 15.2998 40.3106 12.0373C44.9625 8.77491 50.5065 7.02466 56.1884 7.02466C61.8703 7.02466 67.4143 8.77491 72.0663 12.0373C76.7182 15.2998 80.2523 19.916 82.1878 25.2581C84.1233 30.6002 84.3662 36.4088 82.8835 41.8939C81.4009 47.3789 78.2646 52.2741 73.9013 55.9136ZM73.4795 34.6637C73.4795 30.0787 71.6581 25.6816 68.416 22.4395C65.174 19.1975 60.7768 17.3761 56.1919 17.3761C51.6069 17.3761 47.2098 19.1975 43.9677 22.4395C40.7257 25.6816 38.9043 30.0787 38.9043 34.6637C38.9043 39.2486 40.7257 43.6458 43.9677 46.8878C47.2098 50.1299 51.6069 51.9512 56.1919 51.9512C60.7768 51.9512 65.174 50.1299 68.416 46.8878C71.6581 43.6458 73.4795 39.2486 73.4795 34.6637Z" fill="white"/>
</svg>
