<svg width="27" height="27" viewBox="0 0 27 27" fill="none" xmlns="http://www.w3.org/2000/svg">
<path d="M13.875 2.625C12.4826 2.625 11.1473 3.17812 10.1627 4.16269C9.17812 5.14726 8.625 6.48261 8.625 7.875C8.625 9.26739 9.17812 10.6027 10.1627 11.5873C11.1473 12.5719 12.4826 13.125 13.875 13.125C15.2674 13.125 16.6027 12.5719 17.5873 11.5873C18.5719 10.6027 19.125 9.26739 19.125 7.875C19.125 6.48261 18.5719 5.14726 17.5873 4.16269C16.6027 3.17812 15.2674 2.625 13.875 2.625ZM9.9375 7.875C9.9375 6.83071 10.3523 5.82919 11.0908 5.09077C11.8292 4.35234 12.8307 3.9375 13.875 3.9375C14.9193 3.9375 15.9208 4.35234 16.6592 5.09077C17.3977 5.82919 17.8125 6.83071 17.8125 7.875C17.8125 8.91929 17.3977 9.92081 16.6592 10.6592C15.9208 11.3977 14.9193 11.8125 13.875 11.8125C12.8307 11.8125 11.8292 11.3977 11.0908 10.6592C10.3523 9.92081 9.9375 8.91929 9.9375 7.875ZM7.32431 14.4375C6.9786 14.4359 6.63599 14.5027 6.31614 14.6339C5.9963 14.7651 5.70552 14.9582 5.46052 15.2022C5.21551 15.4461 5.0211 15.736 4.88844 16.0552C4.75578 16.3745 4.6875 16.7168 4.6875 17.0625C4.6875 19.2819 5.78081 20.9554 7.48969 22.0461C9.17231 23.1184 11.4403 23.625 13.875 23.625C16.3097 23.625 18.5777 23.1184 20.2603 22.0461C21.9692 20.9567 23.0625 19.2806 23.0625 17.0625C23.0625 16.3663 22.7859 15.6986 22.2937 15.2063C21.8014 14.7141 21.1337 14.4375 20.4375 14.4375H7.32431ZM6 17.0625C6 16.3367 6.588 15.75 7.32431 15.75H20.4375C20.7856 15.75 21.1194 15.8883 21.3656 16.1344C21.6117 16.3806 21.75 16.7144 21.75 17.0625C21.75 18.7806 20.9336 20.0602 19.5542 20.9383C18.1498 21.8347 16.1522 22.3125 13.875 22.3125C11.5978 22.3125 9.60019 21.8347 8.19581 20.9383C6.81769 20.0589 6 18.7819 6 17.0625Z" fill="#0AE1D7"/>
</svg>
