<svg width="588" height="810" viewBox="0 0 588 810" fill="none" xmlns="http://www.w3.org/2000/svg">
<path opacity="0.5" d="M229.532 18.5317C234.143 -7.37681 228.892 -30.3643 225.691 -38.6195C293.306 -69.1001 348.626 -44.9696 367.835 -29.0943C383.202 -19.9501 380.64 19.1668 377.439 37.5821L367.835 94.7334C364.761 106.926 370.396 107.434 373.597 106.164C412.655 94.7334 492.691 71.1109 500.375 68.0628C508.058 65.0147 513.821 65.5227 515.741 66.1578C524.706 92.1933 543.018 145.026 544.554 148.075C546.091 151.123 545.195 158.235 544.554 161.41L446.59 191.89L367.835 214.751C350.931 216.275 342.863 230.626 340.942 237.611L300.604 483.362L339.022 433.831C392.806 372.869 427.382 361.439 465.799 338.579C504.216 315.718 609.864 323.338 634.835 382.395C654.812 429.639 650.842 470.661 646.36 485.267L629.073 586.234C623.95 604.649 612.553 656.72 607.943 717.682C602.18 793.883 634.835 799.598 675.173 797.693C715.512 795.788 769.296 732.922 773.138 715.777C776.211 702.06 783.382 699.901 786.584 700.536C805.024 708.156 804.512 729.112 801.951 738.637C759.692 849.129 659.807 904.376 584.893 900.566C509.979 896.755 471.561 845.319 458.115 799.598C447.359 763.022 460.036 684.026 467.72 649.1C473.482 619.89 486.544 550.038 492.691 504.317C498.838 458.596 493.972 442.086 490.77 439.546C488.849 431.926 473.482 421.638 427.382 441.451C381.281 461.263 326.216 557.658 304.446 603.379L258.345 721.492C257.065 733.557 252.198 766.07 242.978 799.598C233.758 833.127 237.856 873.26 241.057 889.135C185.352 908.186 141.172 898.661 110.438 885.325C85.8512 874.657 87.3879 826.269 91.2296 803.409L164.223 393.825C170.626 358.899 183.815 287.142 185.352 279.522C186.889 271.902 182.151 269.997 179.59 269.997L118.122 289.048C97.6325 296.668 54.349 312.289 45.1288 313.813C35.9086 315.337 31.0424 313.178 29.7619 311.908C22.7188 290.318 7.48015 244.47 2.87007 233.801C-1.74001 223.133 2.22978 217.926 4.79094 216.656L72.0213 195.701C95.0717 188.08 148.088 171.697 175.748 167.125C203.409 162.553 210.324 148.71 210.324 142.359C214.806 111.879 224.922 44.4403 229.532 18.5317Z" fill="#00FFF2"/>
</svg>
