<svg width="107" height="107" viewBox="0 0 107 107" fill="none" xmlns="http://www.w3.org/2000/svg">
<path d="M13.4258 31.5758C13.4258 29.2284 14.3583 26.977 16.0182 25.3171C17.6782 23.6571 19.9295 22.7246 22.277 22.7246H84.2357C86.5832 22.7246 88.8345 23.6571 90.4945 25.3171C92.1544 26.977 93.0869 29.2284 93.0869 31.5758V75.832C93.0869 78.1795 92.1544 80.4309 90.4945 82.0908C88.8345 83.7507 86.5832 84.6833 84.2357 84.6833H22.277C19.9295 84.6833 17.6782 83.7507 16.0182 82.0908C14.3583 80.4309 13.4258 78.1795 13.4258 75.832V31.5758Z" stroke="white" stroke-width="8.85124" stroke-linecap="round" stroke-linejoin="round"/>
<path d="M13.4258 31.5757L53.2564 58.1294L93.0869 31.5757" stroke="white" stroke-width="8.85124" stroke-linecap="round" stroke-linejoin="round"/>
</svg>
