<svg width="18" height="19" viewBox="0 0 18 19" fill="none" xmlns="http://www.w3.org/2000/svg">
<path fill-rule="evenodd" clip-rule="evenodd" d="M2.29839 7.24577C2.29839 5.46409 3.00615 3.75539 4.26599 2.49556C5.52582 1.23572 7.23452 0.527954 9.0162 0.527954C10.7979 0.527954 12.5066 1.23572 13.7664 2.49556C15.0262 3.75539 15.734 5.46409 15.734 7.24577V10.858L17.4826 14.3551C17.5631 14.5161 17.6011 14.695 17.593 14.8747C17.5849 15.0545 17.531 15.2292 17.4364 15.3823C17.3417 15.5354 17.2096 15.6618 17.0524 15.7494C16.8952 15.837 16.7182 15.883 16.5382 15.883H12.734C12.5206 16.7066 12.0396 17.436 11.3667 17.9568C10.6938 18.4775 9.86705 18.76 9.0162 18.76C8.16534 18.76 7.33857 18.4775 6.66567 17.9568C5.99277 17.436 5.51184 16.7066 5.29837 15.883H1.49417C1.3142 15.883 1.13722 15.837 0.980031 15.7494C0.822839 15.6618 0.690657 15.5354 0.596039 15.3823C0.50142 15.2292 0.447508 15.0545 0.439421 14.8747C0.431334 14.695 0.469342 14.5161 0.549834 14.3551L2.29839 10.858V7.24577ZM7.35402 15.883C7.52249 16.1747 7.76478 16.417 8.05655 16.5854C8.34832 16.7539 8.67929 16.8426 9.0162 16.8426C9.3531 16.8426 9.68407 16.7539 9.97584 16.5854C10.2676 16.417 10.5099 16.1747 10.6784 15.883H7.35402ZM9.0162 2.44733C7.74357 2.44733 6.52307 2.95288 5.62319 3.85276C4.72331 4.75264 4.21776 5.97314 4.21776 7.24577V10.858C4.21774 11.1559 4.14841 11.4496 4.01527 11.716L2.89243 13.9636H15.1409L14.0181 11.716C13.8846 11.4497 13.815 11.1559 13.8146 10.858V7.24577C13.8146 5.97314 13.3091 4.75264 12.4092 3.85276C11.5093 2.95288 10.2888 2.44733 9.0162 2.44733Z" fill="white"/>
</svg>
